<svg width="48" height="48" viewBox="0 0 48 48" fill="none" xmlns="http://www.w3.org/2000/svg">
<path fill-rule="evenodd" clip-rule="evenodd" d="M24.1517 48C25.894 48 28.072 47.6733 30.6855 47.0199C36.317 45.2465 40.7662 42.0263 44.0331 37.3593C46.6777 32.7389 48 28.7176 48 25.2951V25.2951V23.0083C48 17.1123 45.3554 11.4808 40.0661 6.11376C35.088 2.03792 29.9232 0 24.5717 0V0H23.5916C17.929 0 12.5309 2.2246 7.39718 6.6738C2.46573 11.9164 0 17.6957 0 24.0117C0 29.9232 2.17793 35.368 6.53379 40.3461C11.6675 45.4487 17.4934 48 24.0117 48V48H24.1517ZM20.8848 34.3724C18.9246 34.3724 16.6067 33.7579 13.931 32.5289V32.5289V32.2489H14.771C16.6067 32.2489 18.4579 31.6811 20.3247 30.5455V30.5455V30.1254C18.6602 30.1254 17.2834 29.1298 16.1945 27.1386V27.1386V26.8585L16.9178 26.9985H17.6179L17.8979 26.8585C15.5333 25.5518 14.351 23.9883 14.351 22.1682V22.1682V22.0282C15.0199 22.4016 15.6811 22.5882 16.3345 22.5882V22.5882V22.4482C15.1366 21.2348 14.4754 20.1458 14.351 19.1813V19.1813V17.4779C14.7244 16.8712 14.911 16.49 14.911 16.3345V16.3345H15.0744L17.0579 18.1779C19.1891 19.858 21.7404 20.9003 24.7117 21.3048C24.914 21.3048 25.0151 21.2115 25.0151 21.0248V21.0248V19.8814C25.0151 19.1191 25.1551 18.5046 25.4351 18.0379C26.3996 16.2489 27.6753 15.3544 29.262 15.3544V15.3544H30.4054C31.2611 15.4477 32.21 15.9222 33.2523 16.7778V16.7778H33.6723C33.9679 16.7778 34.8158 16.4434 36.2158 15.7744V15.7744H36.3559V15.9144C35.9203 16.8167 35.2591 17.5246 34.3724 18.0379V18.0379L34.5124 18.3413C35.4925 18.139 36.2547 17.8979 36.7992 17.6179V17.6179V17.7579C36.7837 17.929 36.0214 18.738 34.5124 20.1847V20.1847V21.1648C34.5124 23.7628 33.4701 26.5085 31.3855 29.402C28.492 32.7156 24.9917 34.3724 20.8848 34.3724Z" fill="black"/>
</svg>
