<svg width="48" height="48" viewBox="0 0 48 48" fill="none" xmlns="http://www.w3.org/2000/svg">
<path fill-rule="evenodd" clip-rule="evenodd" d="M24.2791 48C25.9535 48 28.2713 47.6202 31.2326 46.8605C37.0775 44.845 41.5814 41.2481 44.7442 36.0698C46.9147 31.8682 48 28.1705 48 24.9767V23C48 22.5349 47.8605 21.4419 47.5814 19.7209C47.2093 16.0775 45.1705 12.0078 41.4651 7.51163C36.1938 2.50388 30.6124 0 24.7209 0H23.2791C21.6047 0 19.6202 0.325581 17.3256 0.976744C11.186 3.00775 6.64341 6.4186 3.69767 11.2093C1.83721 14.062 0.604651 17.7985 0 22.4186C0.0930233 22.4186 0.139535 22.4729 0.139535 22.5814C0.0465116 22.7364 0 22.9225 0 23.1395V23.4186C0 29.9457 2.22481 35.6744 6.67442 40.6047C11.9147 45.5349 17.5969 48 23.7209 48H24.2791ZM25.2791 38.6279H20.2326L20.1628 37.7674V25.5581C20.0233 25.2636 19.8837 25.1163 19.7442 25.1163H17.3256V20.1628H19.7442C20.0233 20.0078 20.1628 19.8605 20.1628 19.7209L20.0233 15.3256C20.2093 14.3178 20.3953 13.5581 20.5814 13.0465C21.5736 10.5969 23.7054 9.37209 26.9767 9.37209H27.6977C29.6822 9.37209 30.6744 9.51163 30.6744 9.7907V14.0465H27.8372C26.1318 14.2016 25.2791 15.0078 25.2791 16.4651V19.8837C25.2791 20.0698 25.3721 20.1628 25.5581 20.1628H30.3953V20.4419C30.1008 23.5581 29.8605 25.1163 29.6744 25.1163H25.5581C25.4031 25.1163 25.3101 25.2171 25.2791 25.4186V38.6279Z" fill="black"/>
</svg>
