<svg width="48" height="48" viewBox="0 0 48 48" fill="none" xmlns="http://www.w3.org/2000/svg">
<path fill-rule="evenodd" clip-rule="evenodd" d="M24.2109 48C27.1641 48 30.4922 47.237 34.1953 45.7109C39.3672 43.126 43.2109 39.2954 45.7266 34.219C46.8672 31.8832 47.625 28.9946 48 25.5533V23.2876C48 22.8049 47.9062 21.7654 47.7188 20.1693C47.5312 18.5732 47.1562 17.1523 46.5938 15.9066C45.7656 12.9168 43.4844 9.55328 39.75 5.81606C34.7188 1.93869 29.6797 0 24.6328 0H23.5078C17.2578 0 11.4609 2.60049 6.11719 7.80146C2.03906 12.8467 0 17.8141 0 22.7036V25.6934C0.28125 28.6054 0.851562 31.019 1.71094 32.9343C2.49219 35.3946 4.4375 38.2365 7.54688 41.4599C12.5 45.82 17.9609 48 23.9297 48H24.2109ZM17.0859 18.3124C15.5547 18.3124 14.6563 17.6039 14.3906 16.1869V15.3226C14.9844 14.0925 15.8359 13.4774 16.9453 13.4774C18.7578 13.7265 19.6641 14.583 19.6641 16.0467V16.1869C19.1953 17.6039 18.3359 18.3124 17.0859 18.3124ZM26.0625 33.9387H22.0781C21.9219 33.9387 21.8281 33.8453 21.7969 33.6584V20.1577H26.3438V21.5825H26.6484C27.7109 20.4925 28.7969 19.9241 29.9062 19.8774H31.3359C31.6016 19.8774 32.3125 20.1109 33.4688 20.5781C35 21.9173 35.7656 23.3888 35.7656 24.9927V33.9387H31.4766C31.3203 33.9387 31.2266 33.8453 31.1953 33.6584V26.4175C31.1953 24.4243 30.3906 23.4277 28.7813 23.4277C27.3906 23.4277 26.5781 24.4243 26.3438 26.4175V33.6584C26.3438 33.8453 26.25 33.9387 26.0625 33.9387ZM18.9375 33.9387H14.9531C14.7969 33.9387 14.7031 33.8453 14.6719 33.6584V20.438C14.6719 20.2822 14.7656 20.1888 14.9531 20.1577H18.9375L19.2188 20.7182V33.6584C19.2188 33.8453 19.125 33.9387 18.9375 33.9387Z" fill="black"/>
</svg>
