<svg width="48" height="48" viewBox="0 0 48 48" fill="none" xmlns="http://www.w3.org/2000/svg">
<path d="M25.7851 0C29.7521 0 34.5124 2 39.6694 5.6C45.2231 10.8 48 17.2 48 24C48 32 44.4298 38.8 37.6859 44C33.3223 46.8 28.9587 48 24.1983 48C15.4711 48 8.72727 44 3.57025 36C1.19008 32.4 0 28.4 0 24C0 16.4 3.17355 9.6 9.91736 4.4C13.4876 2 17.4545 0.4 21.4215 0H25.7851V0ZM10.7107 17.2V32.8C10.7107 33.6 11.5041 34.4 12.2975 34.4H35.7025C36.4959 34.4 37.2893 33.6 37.2893 32.8V17.2C37.2893 16.8 36.8926 16 36.4959 15.6H11.5041C11.1074 16.4 10.7107 16.8 10.7107 17.2ZM12.2975 17.2C13.4876 18 16.2645 20 21.0248 24.4C21.8182 25.2 23.0083 26 23.8017 26.8C27.7686 23.6 31.3388 20.4 34.5124 17.6V18C33.3223 19.6 31.3388 21.6 28.9587 24L35.7025 32.4V32.8L27.7686 24.8C27.7686 25.2 26.5785 26.4 24.1983 28.8L19.8347 24.8C17.0579 27.6 14.6777 30 11.9008 32.8V32.4L19.0413 24C18.2479 23.2 16.2645 20.8 12.2975 17.2Z" fill="black"/>
</svg>
